:version 1.10
:name ASF
:units
  mass 1
  length 1
  angle deg
:documentation
  ASF file generated by Kaydara
:root
  axis xyz
  order  tx ty tz rx ry rz
  position 0 0 0
  orientation 0 0 0
:bonedata
  begin
    id 1
    name LeftUpLegDummy
    direction 1 -2.30186e-007 -8.31532e-007
    length 2.93387
    axis 0 0 0 xyz
  end
  begin
    id 2
    name LeftUpLeg
    direction -1.82929e-007 -1 -1.48925e-009
    length 17.3336
    axis -3.48766 0.00143442 -0.000521554 xyz
    dof rx ry rz
  end
  begin
    id 3
    name LeftLeg
    direction -1.82929e-007 -1 -5.23717e-011
    length 14.9995
    axis 3.68178 -0.00654042 -0.000282425 xyz
    dof rx ry rz
  end
  begin
    id 4
    name LeftFoot
    direction 8.31532e-007 -4.54534e-011 1
    length 6.74421
    axis 1.87234e-006 4.66016e-005 -5.96866e-006 xyz
    dof rx ry rz
  end
  begin
    id 5
    name LeftToes
    direction 0.00818058 -0.00485161 0.999955
    length 3.85048
    axis 1.06247e-005 4.65869e-005 -5.96999e-006 xyz
    dof rx ry rz
  end
  begin
    id 6
    name SpineDummy
    direction -5.8607e-008 0.943407 -0.331637
    length 5.93572
    axis 0 0 0 xyz
  end
  begin
    id 7
    name Spine
    direction -1.04988e-007 0.999988 0.00495137
    length 10.1015
    axis -0.001389 0.000121417 6.61666e-006 xyz
    dof rx ry rz
  end
  begin
    id 8
    name Spine1
    direction 0 0 0
    length 0
    axis -0.001389 0.00012144 6.56766e-006 xyz
    dof rx ry rz
  end
  begin
    id 9
    name RightShoulderDummy
    direction -0.98348 0.17941 -0.0240696
    length 3.59882
    axis -0.001389 0.00012144 6.56766e-006 xyz
  end
  begin
    id 10
    name RightShoulder
    direction -0.978693 0.204882 0.0135597
    length 2.70001
    axis 0.215806 0.000203631 -0.00679732 xyz
    dof rx ry rz
  end
  begin
    id 11
    name RightArm
    direction -1 3.85509e-006 8.31394e-007
    length 10.2459
    axis -23.2009 -0.134239 -0.964098 xyz
    dof rx ry rz
  end
  begin
    id 12
    name RightForeArm
    direction -1 3.85569e-006 8.3129e-007
    length 8.16799
    axis -9.92322 0.0658061 0.17887 xyz
    dof rx ry rz
  end
  begin
    id 13
    name RightHand
    direction -0.992843 -0.0414604 0.112003
    length 5.28593
    axis -0.00960638 0.00330669 -0.185225 xyz
    dof rx ry rz
  end
  begin
    id 14
    name LeftShoulder1Dummy
    direction 0.983523 0.179172 -0.0240748
    length 3.59866
    axis -0.001389 0.00012144 6.56766e-006 xyz
  end
  begin
    id 15
    name LeftShoulder1
    direction 0.978627 0.205195 0.0135605
    length 2.70019
    axis -0.001389 0.00012144 6.57583e-006 xyz
    dof rx ry rz
  end
  begin
    id 16
    name LeftArm
    direction 1 3.51895e-006 -8.60188e-007
    length 10.2459
    axis -23.1894 0.134785 0.967513 xyz
    dof rx ry rz
  end
  begin
    id 17
    name LeftForeArm
    direction 1 3.51921e-006 -7.32029e-007
    length 8.16799
    axis -9.91835 -0.0656957 -0.177789 xyz
    dof rx ry rz
  end
  begin
    id 18
    name LeftHand
    direction 0.992938 -0.0411636 0.11126
    length 5.32135
    axis -0.00960237 -0.00340661 0.185177 xyz
    dof rx ry rz
  end
  begin
    id 19
    name HEadDummy
    direction 1.01974e-006 0.999861 -0.016675
    length 2.99946
    axis -0.001389 0.00012144 6.56766e-006 xyz
  end
  begin
    id 20
    name HEad
    direction -0.0222689 0.980941 0.193023
    length 5.12695
    axis -0.001389 0.00012144 6.56766e-006 xyz
    dof rx ry rz
  end
  begin
    id 21
    name RightUpLegDummy
    direction -1 2.30186e-007 8.31532e-007
    length 2.93387
    axis 0 0 0 xyz
  end
  begin
    id 22
    name RightUpLeg
    direction -1.82966e-007 -1 1.56832e-007
    length 17.3336
    axis -3.4909 -0.000906625 0.00028951 xyz
    dof rx ry rz
  end
  begin
    id 23
    name RightLeg
    direction -1.82786e-007 -1 -1.80317e-007
    length 14.9995
    axis 3.68513 0.0193739 -0.131021 xyz
    dof rx ry rz
  end
  begin
    id 24
    name RightFoot
    direction 8.31721e-007 -4.63324e-011 1
    length 6.74421
    axis 4.81691e-005 -0.120479 -0.188785 xyz
    dof rx ry rz
  end
  begin
    id 25
    name RightToes
    direction 0.00124746 -0.014064 0.9999
    length 3.85082
    axis 0.000481921 0.542163 -0.142575 xyz
    dof rx ry rz
  end
:hierarchy
  begin
    root LeftUpLegDummy SpineDummy RightUpLegDummy
    LeftUpLegDummy LeftUpLeg
    LeftUpLeg LeftLeg
    LeftLeg LeftFoot
    LeftFoot LeftToes
    SpineDummy Spine
    Spine Spine1
    Spine1 RightShoulderDummy LeftShoulder1Dummy HEadDummy
    RightShoulderDummy RightShoulder
    RightShoulder RightArm
    RightArm RightForeArm
    RightForeArm RightHand
    LeftShoulder1Dummy LeftShoulder1
    LeftShoulder1 LeftArm
    LeftArm LeftForeArm
    LeftForeArm LeftHand
    HEadDummy HEad
    RightUpLegDummy RightUpLeg
    RightUpLeg RightLeg
    RightLeg RightFoot
    RightFoot RightToes
  end

:SAMPLES-PER-SECOND 30
:FULLY-SPECIFIED
:DEGREES
214
root  38.48 34.8411 52.6541 -170.852 31.5638 179.9
LeftUpLeg  -14.4892 18.1097 -3.25718
LeftLeg  12.2446 21.6433 3.17734
LeftFoot  1.11794 -0.00429467 0.440189
LeftToes  -8.34635 2.48695e-006 -1.03773e-007
Spine  2.99827 -0.182753 -0.0466077
Spine1  5.76861 -0.573499 0.277584
RightShoulder  0.0337261 5.96447 7.0738
RightArm  -38.0731 -16.3523 71.5529
RightForeArm  26.1423 17.8263 3.24614
RightHand  0.359159 -5.98455 -6.4856
LeftShoulder1  0.0559888 0.0797783 -9.15108
LeftArm  -12.1191 2.90735 -70.098
LeftForeArm  34.3776 -16.2353 -2.93324
LeftHand  0.108822 2.30053 4.80509
HEad  7.13838 29.5297 -6.02888
RightUpLeg  -9.86502 -12.7444 -6.02494
RightLeg  10.2222 -7.39975 -0.843047
RightFoot  4.4388 0.0366411 -0.567788
RightToes  -36.7239 -0.192856 -0.295878
215
root  38.3053 34.8159 52.3656 -171.023 30.5088 179.882
LeftUpLeg  -14.2195 18.0261 -3.65196
LeftLeg  12.4851 20.6741 3.12824
LeftFoot  0.274559 -0.000236107 0.0985347
LeftToes  -7.69813 2.48695e-006 -1.03773e-007
Spine  2.97336 -0.233894 -0.233231
Spine1  5.71773 -0.68621 -0.0607024
RightShoulder  0.0329699 5.9352 7.01529
RightArm  -38.3685 -16.9951 72.6756
RightForeArm  26.4765 17.5015 3.18295
RightHand  0.351667 -5.99734 -6.32863
LeftShoulder1  0.0584489 0.0301618 -9.22754
LeftArm  -12.3799 2.47717 -69.5262
LeftForeArm  34.0151 -16.4501 -2.97459
LeftHand  0.108698 2.31488 4.66217
HEad  7.37548 28.9661 -6.04435
RightUpLeg  -9.65047 -13.3449 -6.62381
RightLeg  11.2045 -7.79448 -1.02304
RightFoot  4.22262 0.0338955 -0.569392
RightToes  -37.5414 -0.199147 -0.300817
216
root  38.1443 34.789 52.0918 -171.221 29.537 179.91
LeftUpLeg  -13.861 18.0624 -3.95763
LeftLeg  12.665 19.6982 3.04873
LeftFoot  -0.527274 -0.00089821 -0.195212
LeftToes  -7.08813 2.48695e-006 -1.03773e-007
Spine  2.97533 -0.216424 -0.399553
Spine1  5.7242 -0.655831 -0.366241
RightShoulder  0.0316854 5.90919 6.97132
RightArm  -38.5015 -17.4825 73.7595
RightForeArm  26.8048 17.1438 3.11364
RightHand  0.338901 -6.02146 -6.06017
LeftShoulder1  0.0600174 0.0540211 -9.33601
LeftArm  -12.6696 2.20528 -69.0109
LeftForeArm  33.1406 -16.8975 -3.06115
LeftHand  0.106923 2.35523 4.46776
HEad  7.79763 28.2719 -5.83372
RightUpLeg  -9.70474 -13.9572 -7.15424
RightLeg  12.8366 -8.12779 -1.30232
RightFoot  3.77135 0.0277476 -0.530839
RightToes  -38.3954 -0.205794 -0.30588
217
root  37.9961 34.7589 51.8326 -171.669 28.6501 179.786
LeftUpLeg  -13.3398 18.0303 -4.3022
LeftLeg  12.9139 18.8934 3.01137
LeftFoot  -1.28443 -0.00500615 -0.446613
LeftToes  -6.36718 2.48695e-006 -1.03773e-007
Spine  3.05445 -0.182877 -0.613982
Spine1  5.88461 -0.590594 -0.761377
RightShoulder  0.0302448 5.87642 6.99044
RightArm  -38.3781 -17.6485 74.7802
RightForeArm  27.291 16.7764 3.04269
RightHand  0.312997 -5.91615 -5.67524
LeftShoulder1  0.0610958 0.159659 -9.49102
LeftArm  -12.9968 2.02901 -68.4495
LeftForeArm  31.86 -17.4394 -3.16664
LeftHand  0.106764 2.49589 4.51551
HEad  8.31564 27.5429 -5.47968
RightUpLeg  -10.0082 -14.4768 -7.79185
RightLeg  15.3233 -8.73596 -1.78963
RightFoot  3.15251 0.0213262 -0.478096
RightToes  -39.4157 -0.213833 -0.311798
218
root  37.8553 34.7315 51.598 -172.095 27.7343 179.708
LeftUpLeg  -12.7943 17.5221 -4.55061
LeftLeg  13.1222 18.5318 3.02365
LeftFoot  -1.93793 -0.0110928 -0.655863
LeftToes  -5.88042 2.48695e-006 -1.03773e-007
Spine  3.16282 -0.157932 -0.779018
Spine1  6.10173 -0.544776 -1.05506
RightShoulder  0.0287161 5.69258 7.00096
RightArm  -37.7256 -17.5389 75.6206
RightForeArm  27.6631 16.7198 3.03166
RightHand  0.29662 -5.96666 -5.31104
LeftShoulder1  0.0621179 0.0361551 -9.75594
LeftArm  -13.9953 2.10467 -67.768
LeftForeArm  30.0711 -18.1356 -3.30308
LeftHand  0.0952038 2.51497 3.95419
HEad  8.57745 26.9239 -5.28171
RightUpLeg  -10.748 -14.7494 -8.23124
RightLeg  18.6095 -9.9792 -2.64291
RightFoot  2.50472 0.0178398 -0.438358
RightToes  -39.6929 -0.216035 -0.313381
219
root  37.7389 34.7142 51.3763 -172.395 26.6781 179.758
LeftUpLeg  -12.3139 17.0438 -4.66021
LeftLeg  13.3056 18.0519 3.00634
LeftFoot  -2.50789 -0.0180058 -0.822588
LeftToes  -5.30193 2.48695e-006 -1.03773e-007
Spine  3.26353 -0.193674 -0.895588
Spine1  6.30663 -0.611862 -1.27518
RightShoulder  0.0270405 5.64178 7.0099
RightArm  -37.3393 -17.349 76.3996
RightForeArm  28.2423 16.8248 3.05158
RightHand  0.268677 -5.84684 -4.88205
LeftShoulder1  0.0635176 0.0024607 -9.86318
LeftArm  -15.0644 2.24788 -67.1331
LeftForeArm  26.4529 -18.8165 -3.43815
LeftHand  0.100279 3.24745 3.15975
HEad  8.62331 26.4433 -5.0459
RightUpLeg  -11.9434 -15.5004 -8.29277
RightLeg  22.6581 -10.9835 -3.74746
RightFoot  0.947704 0.00455012 -0.172484
RightToes  -34.8288 -0.178547 -0.284087
220
root  37.6438 34.7019 51.1625 -172.637 25.4914 179.861
LeftUpLeg  -11.8754 16.7001 -4.68736
LeftLeg  13.4812 17.3267 2.94316
LeftFoot  -2.946 -0.0237262 -0.922671
LeftToes  -4.95771 2.48695e-006 -1.03773e-007
Spine  3.33565 -0.271847 -0.966012
Spine1  6.45326 -0.768442 -1.40549
RightShoulder  0.0253026 5.59555 6.99326
RightArm  -36.6935 -17.2335 77.0324
RightForeArm  28.2854 17.3358 3.15012
RightHand  0.316076 -5.79551 -5.86151
LeftShoulder1  0.0657286 -0.0545229 -9.87221
LeftArm  -16.018 2.34386 -66.5264
LeftForeArm  22.7821 -19.1424 -3.50325
LeftHand  0.10667 4.41429 2.39346
HEad  8.71503 25.8647 -4.77903
RightUpLeg  -13.3056 -16.6135 -8.05038
RightLeg  26.6469 -12.1799 -5.1096
RightFoot  0.0189925 5.9346e-005 0.0187386
RightToes  -30.9968 -0.150845 -0.258834
221
root  37.5768 34.6908 50.9562 -172.891 24.0793 179.919
LeftUpLeg  -11.4884 16.2842 -4.71311
LeftLeg  13.7284 16.5271 2.88364
LeftFoot  -3.37521 -0.0295597 -1.00327
LeftToes  -4.4726 2.48695e-006 -1.03773e-007
Spine  3.40589 -0.411459 -1.03
Spine1  6.59001 -1.06019 -1.50855
RightShoulder  0.0236111 5.50239 7.04445
RightArm  -36.2998 -17.0681 77.3121
RightForeArm  27.788 18.0744 3.29384
RightHand  0.379132 -5.71605 -7.20497
LeftShoulder1  0.0697952 -0.184984 -9.80854
LeftArm  -16.9025 2.29618 -65.9242
LeftForeArm  20.4387 -19.084 -3.49181
LeftHand  0.108901 5.16164 2.04297
HEad  8.86754 25.1229 -4.46322
RightUpLeg  -14.5411 -17.9617 -7.68575
RightLeg  29.5109 -10.5557 -5.0714
RightFoot  -0.711057 -0.00128053 0.171357
RightToes  -30.4464 -0.147007 -0.255057
222
root  37.5315 34.6793 50.754 -173.099 22.5837 179.959
LeftUpLeg  -11.0604 15.6166 -4.69726
LeftLeg  13.84 15.819 2.79474
LeftFoot  -3.72419 -0.0342838 -1.0545
LeftToes  -4.10154 2.48695e-006 -1.03773e-007
Spine  3.45609 -0.572888 -1.08863
Spine1  6.6848 -1.4022 -1.59915
RightShoulder  0.0217002 5.39412 7.13449
RightArm  -36.2923 -16.7485 77.2369
RightForeArm  27.885 18.6932 3.41499
RightHand  0.372685 -5.6434 -7.17216
LeftShoulder1  0.0738305 -0.248665 -9.75405
LeftArm  -17.5114 2.16508 -65.3429
LeftForeArm  20.0841 -18.8412 -3.44396
LeftHand  0.128926 5.42036 2.35013
HEad  9.10707 24.3384 -4.0782
RightUpLeg  -15.5536 -18.9865 -7.14525
RightLeg  30.521 -7.05523 -3.5635
RightFoot  -1.36217 -0.00194009 0.214459
RightToes  -30.7011 -0.148778 -0.256809
223
root  37.5024 34.6712 50.568 -173.218 21.2912 -179.97
LeftUpLeg  -10.6499 14.9935 -4.63879
LeftLeg  13.8044 15.2635 2.68941
LeftFoot  -3.99221 -0.0378412 -1.08572
LeftToes  -3.86515 2.48695e-006 -1.03773e-007
Spine  3.48945 -0.646158 -1.14636
Spine1  6.74485 -1.57618 -1.67818
RightShoulder  0.0196876 5.25688 7.19459
RightArm  -36.1323 -16.336 76.9557
RightForeArm  27.9393 19.21 3.51689
RightHand  0.321516 -5.69017 -6.08567
LeftShoulder1  0.0778205 -0.208816 -9.74937
LeftArm  -17.7633 1.91109 -64.7804
LeftForeArm  21.0808 -18.4656 -3.37021
LeftHand  0.149545 5.34299 2.83052
HEad  9.38163 23.4128 -3.61916
RightUpLeg  -16.5131 -19.248 -6.26593
RightLeg  29.8077 -4.31508 -2.12108
RightFoot  -1.34339 -0.00282649 0.136531
RightToes  -32.3821 -0.160664 -0.268177
224
root  37.4898 34.668 50.4084 -173.235 20.2799 -179.771
LeftUpLeg  -10.3142 14.4981 -4.43525
LeftLeg  13.7705 14.8039 2.60141
LeftFoot  -4.23 -0.0410453 -1.11139
LeftToes  -3.86264 2.48695e-006 -1.03773e-007
Spine  3.54234 -0.624641 -1.19402
Spine1  6.84328 -1.56515 -1.73067
RightShoulder  0.018108 5.22227 7.12878
RightArm  -35.769 -15.8769 76.7344
RightForeArm  27.7926 19.7067 3.61556
RightHand  0.275573 -5.72447 -5.13167
LeftShoulder1  0.0817063 -0.166166 -9.73323
LeftArm  -17.7289 1.6826 -64.1909
LeftForeArm  22.5942 -18.0821 -3.29516
LeftHand  0.165924 5.01941 3.40953
HEad  9.30358 22.4496 -3.25036
RightUpLeg  -17.5103 -18.5254 -5.01897
RightLeg  27.8569 -3.41809 -1.53923
RightFoot  -0.967676 -0.00248198 0.0837046
RightToes  -33.609 -0.169546 -0.27625
225
root  37.4908 34.6654 50.2697 -173.195 19.3647 -179.497
LeftUpLeg  -10.0323 14.0083 -4.13616
LeftLeg  13.7477 14.3994 2.52608
LeftFoot  -4.41806 -0.0433922 -1.12488
LeftToes  -3.9526 2.48695e-006 -1.03773e-007
Spine  3.64292 -0.5876 -1.23697
Spine1  7.03821 -1.52332 -1.77571
RightShoulder  0.0168273 5.30377 6.95661
RightArm  -35.3544 -15.3214 76.6922
RightForeArm  27.7358 20.2077 3.71568
RightHand  0.272363 -5.65 -5.13929
LeftShoulder1  0.0868395 -0.19476 -9.7173
LeftArm  -17.4633 1.58913 -63.5244
LeftForeArm  24.096 -17.7754 -3.23522
LeftHand  0.172484 4.57902 3.93622
HEad  8.90072 21.6633 -3.12472
RightUpLeg  -18.6204 -16.9909 -3.598
RightLeg  25.3231 -4.42185 -1.75594
RightFoot  -0.0488558 -0.00235635 0.0183434
RightToes  -33.8929 -0.171626 -0.278092
